<?xml version="1.0" encoding="UTF-8"?>
<svg id="katman_1" data-name="katman 1" xmlns="http://www.w3.org/2000/svg" viewBox="0 0 522 522">
  <defs>
    <style>
      .cls-1 {
        fill: none;
        stroke: #878787;
        stroke-miterlimit: 10;
        stroke-width: 10px;
      }

      .cls-2 {
        fill: #878787;
      }
    </style>
  </defs>
  <circle class="cls-1" cx="261" cy="261" r="256"/>
  <path class="cls-2" d="M261.33,373.84c-48.85,0-97.7-.37-146.54.22-15.71.19-22.03-5.76-21.92-21.45.43-61.06.52-122.12.09-183.18-.11-15.98,6.69-21.56,22.03-21.52,97.08.3,194.17.39,291.25-.03,16.54-.07,23.01,6.26,22.89,22.69-.44,60.45-.46,120.9-.01,181.34.12,16.63-6.57,22.44-23.07,22.18-48.23-.75-96.47-.27-144.71-.26ZM132.36,166.05c1.55,2.75,2.04,4.57,3.22,5.56,38.8,32.64,77.82,65.02,116.4,97.92,7.79,6.64,12.88,5.55,20.19-.69,36.69-31.34,73.86-62.13,110.76-93.23,2.85-2.4,4.93-5.7,8.2-9.55H132.36ZM121.95,354.99h278c-35.61-29.83-67.96-56.94-99.99-83.78-13.56,10.27-25.8,26.84-37.71,26.6-12.9-.26-25.47-16.2-38.2-25.28-.45-.32-1.06-.44-2.47-1-31.87,26.7-64.08,53.68-99.63,83.46ZM314.34,258.16c32.04,26.86,62.9,52.73,95.76,80.27v-160.56c-32.96,27.63-63.59,53.32-95.76,80.29ZM111.35,338.87c33.63-28.17,64.3-53.86,96.35-80.72-32.13-26.88-63-52.71-96.35-80.6v161.32Z"/>
</svg>