<?xml version="1.0" encoding="UTF-8"?>
<svg id="katman_1" data-name="katman 1" xmlns="http://www.w3.org/2000/svg" viewBox="0 0 522 522">
  <defs>
    <style>
      .cls-1 {
        fill: none;
        stroke: #878787;
        stroke-miterlimit: 10;
        stroke-width: 10px;
      }

      .cls-2 {
        fill: #878787;
      }
    </style>
  </defs>
  <circle class="cls-1" cx="261" cy="261" r="256"/>
  <g>
    <path class="cls-2" d="M396.46,395.87c-3.51-50.83-25.45-88.57-66.72-114.5-4.41-2.77-14.07-.8-19.47,2.22-33.22,18.61-65.64,18.75-98.59-.62-4.83-2.84-13.62-4.49-17.79-2.01-42.78,25.47-63.69,64.3-68.36,114.9h270.93Z"/>
    <path class="cls-2" d="M263.38,126.15c-43.29-1.09-80.22,33.77-81.49,76.94-1.27,43.1,33.73,80.84,76.38,82.35,44.41,1.57,82.45-35.34,82.83-80.39.36-41.49-35.45-77.84-77.72-78.9Z"/>
  </g>
</svg>