<?xml version="1.0" encoding="UTF-8"?>
<svg id="katman_1" data-name="katman 1" xmlns="http://www.w3.org/2000/svg" viewBox="0 0 512 256.67">
  <defs>
    <style>
      .cls-1 {
        fill: #878787;
      }
    </style>
  </defs>
  <path class="cls-1" d="M127.66,239.2c-61.82,0-111.54-49.72-111.54-111.54S65.85,17.47,127.66,17.47h255.33c61.82,0,111.54,49.72,111.54,110.19s-49.72,111.54-111.54,111.54H127.66ZM127.66,256.67h255.33c71.22,0,129.01-57.78,129.01-129.01S454.22,0,382.99,0H127.66C57.78,0,0,57.78,0,127.66s57.78,129.01,127.66,129.01Z"/>
  <path class="cls-1" d="M51.07,127.66c0-41.66,33.6-76.6,76.6-76.6s76.6,34.94,76.6,76.6-33.6,77.94-76.6,77.94-76.6-34.94-76.6-77.94"/>
</svg>