<?xml version="1.0" encoding="UTF-8"?>
<svg id="katman_1" data-name="katman 1" xmlns="http://www.w3.org/2000/svg" viewBox="0 0 522 522">
  <defs>
    <style>
      .cls-1 {
        fill: none;
        stroke: #878787;
        stroke-miterlimit: 10;
        stroke-width: 10px;
      }

      .cls-2 {
        fill: #878787;
      }
    </style>
  </defs>
  <path class="cls-2" d="M319.15,90.44c-24.47-8.41-50.73-10.98-76.43-8.59-10.24,1.08-20.45,2.71-30.33,5.68-38.11,10.35-71.92,34.44-95.84,65.74-15.94,21.05-26.7,45.84-31.98,71.69-9.14,45.73-.68,95.2,24.55,134.53,21.21,33.77,54.85,58.99,92.47,71.58,32.38,11.25,67.91,12.97,101.24,5.01,31.3-7.65,60.89-23.16,84.23-45.53,29.4-27.84,47.94-66.55,52.39-106.78,5.18-39.43-2.77-80.75-23.28-114.91-21.81-36.52-56.88-64.72-97.03-78.43ZM250.95,108.88c-.01,21.86.08,43.72-.06,65.58-18.24-.73-36.38-3.65-53.85-8.99,11.44-23.7,28.75-46.64,53.9-56.59ZM250.91,251.68c-24.69-.01-49.38-.01-74.06.02.8-22.76,4.8-45.53,12.4-67.01,19.95,6.38,40.79,9.47,61.65,10.71.23,18.76-.06,37.51.01,56.27ZM198.03,114.25c5.56-2.51,11.5-4,17.09-6.42-16.15,13.33-27.92,31.38-36.59,50.29-9.06-2.72-16.94-8.47-24.99-13.32-.12-.35-.34-1.03-.44-1.38,13.14-12.26,28.6-21.81,44.93-29.17ZM137.99,158.9c10.12,7.06,20.84,13.36,32.25,18.12-8.09,24.04-12.78,49.26-13.33,74.64-18.55.08-37.09.07-55.65.09,1.99-33.77,14.56-67.21,36.73-92.85ZM137.61,363.86c-14.6-17.4-25.45-38.03-31.26-60.03-2.9-10.11-3.86-20.62-5.07-31.02,1.68-1.55,4.1-.81,6.14-.96,16.28.07,32.56-.13,48.84-.06.97,3.53.74,7.23,1.06,10.85,1.47,17.44,4.33,34.83,9.42,51.59,1.19,4.29,2.97,8.42,3.85,12.81-10.21,4.6-20.16,9.89-29.4,16.25-1.03.57-2.66,2.24-3.58.56ZM153.37,379.97c8.06-5.29,16.24-10.76,25.33-14.07,8.33,17.59,19.61,34,34.24,46.91-21.87-6.45-42.25-18.03-59.57-32.84ZM250.87,413.41c-11.85-4.73-22.55-12.21-30.98-21.81-8.76-10.15-16.47-21.32-22.36-33.39,17.13-5.89,35.2-8.77,53.26-9.46.28,21.55-.01,43.11.08,64.66ZM250.95,327.98c-20.91,1.07-41.67,4.66-61.63,11.02-7.38-21.61-11.98-44.31-12.32-67.18,24.63.06,49.26-.06,73.9-.07.2,18.74.04,37.49.05,56.23ZM356.95,133.35c4.46,3.31,8.93,6.66,12.71,10.77-8.27,5.46-17.08,10.04-25.99,14.34-9.36-18.64-20.39-37.13-36.7-50.5,18.02,5.3,34.75,14.46,49.98,25.39ZM292.99,122.26c10.17,8.25,17.97,19.01,24.58,30.23,2.33,4.1,4.96,8.12,6.28,12.71-17.14,5.37-34.98,8.68-52.94,9.28-.21-21.86.04-43.72-.09-65.58,8.28,2.66,15.62,7.72,22.17,13.36ZM270.76,195.39c20.97-.82,41.68-4.81,61.72-10.96,8.17,21.46,12.09,44.33,12.91,67.23-24.89.01-49.77.12-74.66-.08-.02-18.73.08-37.47.04-56.19ZM270.83,271.81c24.82.07,49.63-.11,74.45.08-1.17,22.93-5.08,45.86-13,67.45-19.89-6.52-40.6-10.58-61.51-11.48-.02-18.69-.21-37.37.06-56.05ZM270.88,413.46c-.14-21.65-.26-43.3.05-64.95,11.06,1.09,22.22,1.75,33.07,4.31,6.79,1.22,13.35,3.32,20.04,4.96-3.77,9.91-10.12,18.57-16.47,26.96-9.42,12.61-22.14,22.69-36.68,28.71ZM345.95,396.36c-9.28,5.47-18.92,10.47-29.2,13.75-2.36.73-4.7,1.56-6.89,2.76,14.06-13.27,24.72-29.59,33.53-46.71,8.61,3.58,16.67,8.4,24.31,13.74-6.31,6.63-14.08,11.58-21.75,16.46ZM382.53,365.47c-9.68-7.57-20.67-13.2-31.72-18.45,4.6-13.82,9.02-27.8,11.07-42.28,1.97-10.91,2.56-21.98,3.59-32.98,18.3.16,36.61-.01,54.91.08-1.74,34.26-14.63,68.21-37.85,93.62ZM365.26,251.68c-.64-25.4-5.42-50.63-13.74-74.63,11.31-5.02,22.18-11.16,32.08-18.64,22.11,25.87,35.84,59.07,37.03,93.24-18.46.01-36.93.13-55.38.04Z"/>
  <circle class="cls-1" cx="261" cy="261" r="256"/>
</svg>