<?xml version="1.0" encoding="UTF-8"?>
<svg id="katman_1" data-name="katman 1" xmlns="http://www.w3.org/2000/svg" viewBox="0 0 512 86.49">
  <defs>
    <style>
      .cls-1 {
        fill: #878787;
      }
    </style>
  </defs>
  <path class="cls-1" d="M98.71,2.07l-22.63,83.02h-15.69l-11.56-45.31-11.74,45.31h-15.69L0,2.07h24.21l12.59,50.36L49.39,2.07h14.17l12.41,50.54L89.23,2.07h9.49Z"/>
  <path class="cls-1" d="M147.92,62.65l8.94,2.62c-.93,14.15-9.29,21.23-25.06,21.23-20.44,0-30.65-10.2-30.65-30.59,0-9.89,2.72-18,8.15-24.33,5.43-6.33,12.39-9.49,20.86-9.49,17.72,0,26.58,11.43,26.58,34.3h-32.36c0,16.06,4.08,24.09,12.23,24.09,7.62,0,11.43-4.54,11.43-13.62,0-1.22-.04-2.62-.12-4.2ZM124.32,49.51h13.26c0-14.27-2.15-21.41-6.45-21.41-3.89,0-6.08,5.29-6.57,15.87l-.24,5.53Z"/>
  <path class="cls-1" d="M188.24.85v84.24h-22.2V2.07c6.12,0,13.52-.41,22.2-1.22Z"/>
  <path class="cls-1" d="M222.43.85v84.24h-22.2V2.07c6.12,0,13.52-.41,22.2-1.22Z"/>
  <path class="cls-1" d="M235.62,85.09V2.07h34.43c24.45,0,36.68,13.87,36.68,41.6s-12.67,41.42-38.01,41.42h-33.09ZM259.71,78.22h6.33c5.8,0,9.81-2.5,12.04-7.51,2.23-5.01,3.35-14.06,3.35-27.16s-1.11-22.14-3.31-27.13c-2.21-4.99-6.23-7.48-12.07-7.48h-6.33v69.28Z"/>
  <path class="cls-1" d="M360.43,46.04h-15.21c.53-2.39.99-4.16,1.4-5.29.57-1.66.85-3.16.85-4.5,0-2.59-.93-3.89-2.8-3.89-1.42,0-2.78,1.71-4.08,5.14-1.3,3.43-1.95,7.05-1.95,10.86v36.74h-22.2V23.78l4.32.06c5.11,0,11.07-.55,17.88-1.64v10.1c3.61-6.73,8.03-10.1,13.26-10.1,7.14,0,10.7,3.93,10.7,11.8,0,2.07-.35,4.44-1.03,7.12-.24,1.09-.63,2.74-1.16,4.93Z"/>
  <path class="cls-1" d="M369.86,85.09V23.84c6.93,0,14.33-.55,22.2-1.64v62.89h-22.2ZM381.11,0c6.89,0,10.34,2.68,10.34,8.03s-3.45,8.03-10.34,8.03-10.34-2.68-10.34-8.03,3.45-8.03,10.34-8.03Z"/>
  <path class="cls-1" d="M454.4,23.78l-20.62,61.31h-15.45l-21.29-61.31h23.66l13.02,41.05,13.38-41.05h7.3Z"/>
  <path class="cls-1" d="M503.06,62.65l8.94,2.62c-.93,14.15-9.29,21.23-25.06,21.23-20.44,0-30.65-10.2-30.65-30.59,0-9.89,2.72-18,8.15-24.33,5.43-6.33,12.39-9.49,20.86-9.49,17.72,0,26.58,11.43,26.58,34.3h-32.36c0,16.06,4.08,24.09,12.23,24.09,7.62,0,11.43-4.54,11.43-13.62,0-1.22-.04-2.62-.12-4.2ZM479.46,49.51h13.26c0-14.27-2.15-21.41-6.45-21.41-3.89,0-6.08,5.29-6.57,15.87l-.24,5.53Z"/>
</svg>