<?xml version="1.0" encoding="UTF-8"?>
<svg id="katman_1" data-name="katman 1" xmlns="http://www.w3.org/2000/svg" viewBox="0 0 512 512">
  <defs>
    <style>
      .cls-1 {
        fill-rule: evenodd;
      }

      .cls-1, .cls-2 {
        fill: #878787;
      }
    </style>
  </defs>
  <path class="cls-1" d="M128.93,361.59c-12.08-3.96-20.21-11.88-24.57-23.86-10.63-29.25-13.78-151.6,6.69-175.7,7-8.24,16.01-13.05,26.74-14.21,55.18-5.94,225.73-5.09,245.39,1.99,11.51,4.14,19.68,11.68,24.13,23.21,11.64,30.23,12.04,140.23-1.54,169.36-3.68,7.9-9.68,13.47-17.3,17.47-20.57,10.8-232.46,10.67-259.54,1.74ZM198.28,323.29c45.4-23.55,90.42-46.89,136-70.52-45.65-23.81-90.65-47.3-136-70.97v141.49Z"/>
  <path class="cls-2" d="M256,512C114.84,512,0,397.16,0,256S114.84,0,256,0s256,114.84,256,256-114.84,256-256,256ZM256,15.26C123.25,15.26,15.26,123.25,15.26,256s108,240.75,240.75,240.75,240.74-108,240.74-240.75S388.75,15.26,256,15.26Z"/>
</svg>