<?xml version="1.0" encoding="UTF-8"?>
<svg id="katman_1" data-name="katman 1" xmlns="http://www.w3.org/2000/svg" viewBox="0 0 522 522">
  <defs>
    <style>
      .cls-1 {
        fill: none;
        stroke: #878787;
        stroke-miterlimit: 10;
        stroke-width: 10px;
      }

      .cls-2 {
        fill: #878787;
      }
    </style>
  </defs>
  <circle class="cls-1" cx="261" cy="261" r="256"/>
  <path class="cls-2" d="M378.83,224.87c-3.01-2.63-5.61-5.72-7.63-9.17-2.95-5.02-4.62-10.71-5.08-16.5-.31-3.25.06-6.48.26-9.72.21-3.23.23-6.48.23-9.72v-35.96h-39.92l-1.51,29.51-62.85-58.7-163.31,152.71-5.01,3.74h42.17v135.77h82.02v-49.41c0-23.64,19.16-42.8,42.8-42.8s42.8,19.16,42.8,42.8v49.95l2.48.02h81.94v-137.05h39.77s-32.12-30.52-49.16-45.46Z"/>
</svg>