<?xml version="1.0" encoding="UTF-8"?>
<svg id="katman_1" data-name="katman 1" xmlns="http://www.w3.org/2000/svg" viewBox="0 0 512 402.43">
  <defs>
    <style>
      .cls-1 {
        fill: #908c8a;
      }
    </style>
  </defs>
  <polygon class="cls-1" points="131.48 115.54 15.94 0 0 15.93 117.54 131.48 39.85 131.48 39.85 155.39 155.39 155.39 155.39 39.85 131.48 39.85 131.48 115.54"/>
  <polygon class="cls-1" points="472.15 131.48 394.46 131.48 512 15.93 496.06 0 380.52 115.54 380.52 39.85 356.61 39.85 356.61 155.39 472.15 155.39 472.15 131.48"/>
  <polygon class="cls-1" points="39.85 268.95 117.54 268.95 0 386.48 15.94 402.43 131.48 284.89 131.48 360.58 155.39 360.58 155.39 247.03 39.85 247.03 39.85 268.95"/>
  <polygon class="cls-1" points="472.15 268.95 472.15 247.03 356.61 247.03 356.61 360.58 380.52 360.58 380.52 284.89 496.06 402.43 512 386.48 394.46 268.95 472.15 268.95"/>
</svg>