<?xml version="1.0" encoding="UTF-8"?>
<svg id="katman_4" data-name="katman 4" xmlns="http://www.w3.org/2000/svg" viewBox="0 0 500 356.22">
  <defs>
    <style>
      .cls-1 {
        fill: #1d1d1b;
      }

      .cls-2 {
        fill: #fff;
      }

      .cls-3 {
        fill: #d61120;
      }
    </style>
  </defs>
  <g>
    <rect class="cls-3" x="2" y="2" width="496" height="352.22" rx="28" ry="28"/>
    <path class="cls-3" d="M470,4c14.34,0,26,11.66,26,26v296.22c0,14.34-11.66,26-26,26H30c-14.34,0-26-11.66-26-26V30C4,15.66,15.66,4,30,4h440M470,0H30C13.5,0,0,13.5,0,30v296.22c0,16.5,13.5,30,30,30h440c16.5,0,30-13.5,30-30V30c0-16.5-13.5-30-30-30h0Z"/>
  </g>
  <g>
    <rect class="cls-2" x="27" y="20.78" width="446" height="76" rx="8" ry="8"/>
    <path class="cls-2" d="M465,22.78c3.31,0,6,2.69,6,6v60c0,3.31-2.69,6-6,6H35c-3.31,0-6-2.69-6-6V28.78c0-3.31,2.69-6,6-6h430M465,18.78H35c-5.5,0-10,4.5-10,10v60c0,5.5,4.5,10,10,10h430c5.5,0,10-4.5,10-10V28.78c0-5.5-4.5-10-10-10h0Z"/>
  </g>
  <g>
    <path class="cls-1" d="M50.96,78.03v-38.49h17.6c12.32,0,17.87,6.05,17.87,18.97s-5.88,19.52-18.75,19.52h-16.72ZM66.8,69.23c5.22,0,8.47-2.75,8.47-10.56,0-7.04-2.53-10.34-7.53-10.34h-5.66v20.9h4.73Z"/>
    <path class="cls-1" d="M117.12,39.53h11.05v22.55c0,12.15-6.54,16.77-17.65,16.77s-17.82-4.89-17.82-16.77v-22.55h11.05v23.15c0,4.62,2.42,7.04,6.71,7.04s6.65-2.42,6.65-7.04v-23.15Z"/>
    <path class="cls-1" d="M157.44,72.86h-13.42l-1.54,5.17h-11l12.81-38.49h13.25l12.81,38.49h-11.33l-1.59-5.17ZM146.44,64.61h8.58l-4.29-14.19-4.29,14.19Z"/>
    <path class="cls-1" d="M205.23,68.9v9.13h-29.86v-38.49h11.16v29.37h18.7Z"/>
    <path class="cls-1" d="M229.76,67.2h-22.05v-8.14h22.05v8.14Z"/>
    <path class="cls-1" d="M237.08,39.53h20.51c8.74,0,13.14,5.39,13.14,13.2,0,5.5-2.2,9.4-6,11.49l6.27,13.8h-12.15l-4.84-11.71h-6.05v11.71h-10.89v-38.49ZM247.97,48.55v9.07h7.2c2.8,0,4.51-1.65,4.51-4.62,0-2.42-1.21-4.45-4.34-4.45h-7.37Z"/>
    <path class="cls-1" d="M299.11,72.86h-13.42l-1.54,5.17h-11l12.81-38.49h13.25l12.81,38.49h-11.33l-1.59-5.17ZM288.12,64.61h8.58l-4.29-14.19-4.29,14.19Z"/>
    <path class="cls-1" d="M343.77,39.53v9.35h-11.38v29.15h-11.05v-29.15h-11.38v-9.35h33.82Z"/>
    <path class="cls-1" d="M349.22,39.53h11.11v38.49h-11.11v-38.49Z"/>
    <path class="cls-1" d="M379.8,57.02l.28,21.01h-10.45v-38.49h8.25l17.43,22.82-.22-22.82h10.45v38.49h-9.35l-16.39-21.01Z"/>
    <path class="cls-1" d="M412.75,58.73c0-13.75,6.49-20.02,19.52-20.02,7.86,0,13.03,2.58,15.51,8.74l-8.91,4.51c-1.54-3.13-3.24-4.12-6.71-4.12-5.39,0-8.25,2.69-8.25,11s3.02,11.22,8.47,11.22c3.25,0,6.21-1.59,6.71-5.39h-6.71v-8.14h16.66v21.5h-7.53l-.66-4.34c-1.98,3.19-5.55,5.17-10.61,5.17-10.72,0-17.49-6.54-17.49-20.13Z"/>
  </g>
  <g>
    <path class="cls-2" d="M84.01,174.03h-13.86v14.46h-11.11v-38.5h11.11v14.63h13.86v-14.63h11.11v38.5h-11.11v-14.46Z"/>
    <path class="cls-2" d="M104.42,150h30.41v8.52h-19.58v6.21h16.83v8.63h-16.83v6.54h20.13v8.58h-30.96v-38.5Z"/>
    <path class="cls-2" d="M164.26,183.33h-13.42l-1.54,5.17h-11l12.81-38.5h13.25l12.81,38.5h-11.33l-1.59-5.17ZM153.26,175.08h8.58l-4.29-14.19-4.29,14.19Z"/>
    <path class="cls-2" d="M186.15,150l8.03,26.4,8.14-26.4h11.16l-13.03,38.5h-12.87l-12.98-38.5h11.55Z"/>
    <path class="cls-2" d="M215.57,150h12.32l7.42,15.12,7.31-15.12h11.66l-13.8,25.02v13.47h-11.11v-13.8l-13.8-24.69Z"/>
    <path class="cls-2" d="M276.73,177.66h-22.05v-8.14h22.05v8.14Z"/>
    <path class="cls-2" d="M284.05,188.5v-38.5h17.6c12.32,0,17.87,6.05,17.87,18.97s-5.88,19.52-18.75,19.52h-16.72ZM299.89,179.7c5.22,0,8.47-2.75,8.47-10.56,0-7.04-2.53-10.34-7.53-10.34h-5.67v20.9h4.73Z"/>
    <path class="cls-2" d="M350.21,150h11.05v22.55c0,12.15-6.54,16.77-17.65,16.77s-17.82-4.89-17.82-16.77v-22.55h11.05v23.15c0,4.62,2.42,7.04,6.71,7.04s6.65-2.42,6.65-7.04v-23.15Z"/>
    <path class="cls-2" d="M399.65,150v9.35h-11.38v29.15h-11.05v-29.15h-11.38v-9.35h33.82Z"/>
    <path class="cls-2" d="M402.24,150h12.32l7.42,15.12,7.31-15.12h11.66l-13.8,25.02v13.47h-11.11v-13.8l-13.8-24.69Z"/>
  </g>
  <g>
    <path class="cls-2" d="M38.78,268.31l.28,21.01h-10.45v-38.5h8.25l17.43,22.82-.22-22.82h10.45v38.5h-9.35l-16.39-21.01Z"/>
    <path class="cls-2" d="M71.72,270.02c0-13.31,6.21-20.02,19.41-20.02s19.36,6.76,19.36,20.07-6.27,20.07-19.47,20.07-19.3-6.82-19.3-20.13ZM82.89,270.13c0,8.03,2.75,11,8.14,11s8.14-2.92,8.14-11.11-2.7-10.94-8.08-10.94-8.19,2.86-8.19,11.05Z"/>
    <path class="cls-2" d="M117.65,250.82h20.51c8.74,0,13.14,5.39,13.14,13.2,0,5.5-2.2,9.4-5.99,11.49l6.27,13.8h-12.15l-4.84-11.71h-6.05v11.71h-10.89v-38.5ZM128.53,259.84v9.07h7.2c2.8,0,4.51-1.65,4.51-4.62,0-2.42-1.21-4.45-4.34-4.45h-7.37Z"/>
    <path class="cls-2" d="M167.53,268.09l.44,21.23h-10.01v-38.5h11.88l10.94,25.85,10.83-25.85h12.21v38.5h-10.39l.5-22.16-9.46,22.16h-7.7l-9.24-21.23Z"/>
    <path class="cls-2" d="M234.85,284.15h-13.42l-1.54,5.17h-11l12.81-38.5h13.25l12.81,38.5h-11.33l-1.59-5.17ZM223.85,275.9h8.58l-4.29-14.19-4.29,14.19Z"/>
    <path class="cls-2" d="M282.64,280.19v9.13h-29.86v-38.5h11.16v29.37h18.7Z"/>
    <path class="cls-2" d="M307.17,278.49h-22.05v-8.14h22.05v8.14Z"/>
    <path class="cls-2" d="M314.49,289.32v-38.5h17.6c12.32,0,17.87,6.05,17.87,18.97s-5.88,19.52-18.75,19.52h-16.72ZM330.33,280.52c5.22,0,8.47-2.75,8.47-10.56,0-7.04-2.53-10.34-7.53-10.34h-5.67v20.9h4.73Z"/>
    <path class="cls-2" d="M380.65,250.82h11.05v22.55c0,12.15-6.54,16.77-17.65,16.77s-17.82-4.89-17.82-16.77v-22.55h11.05v23.15c0,4.62,2.42,7.04,6.71,7.04s6.65-2.42,6.65-7.04v-23.15Z"/>
    <path class="cls-2" d="M430.1,250.82v9.35h-11.38v29.15h-11.05v-29.15h-11.38v-9.35h33.82Z"/>
    <path class="cls-2" d="M432.68,250.82h12.32l7.42,15.12,7.31-15.12h11.66l-13.8,25.02v13.47h-11.11v-13.8l-13.8-24.69Z"/>
  </g>
</svg>