<?xml version="1.0" encoding="UTF-8"?>
<svg id="katman_1" data-name="katman 1" xmlns="http://www.w3.org/2000/svg" viewBox="0 0 512 403.5">
  <defs>
    <style>
      .cls-1 {
        fill: #908c8a;
      }
    </style>
  </defs>
  <polygon class="cls-1" points="139.08 249.13 21.4 365.28 21.4 287.33 0 287.33 0 403.5 116.15 403.5 116.15 382.09 36.68 382.09 154.36 264.41 139.08 249.13"/>
  <polygon class="cls-1" points="116.15 21.4 116.15 0 0 0 0 116.16 21.39 116.16 21.39 38.21 139.08 155.9 154.37 139.09 36.68 21.4 116.15 21.4"/>
  <polygon class="cls-1" points="395.84 0 395.84 21.41 473.79 21.41 353.05 142.14 368.32 157.43 489.08 38.22 489.08 116.17 511.99 116.17 511.99 0 395.84 0"/>
  <polygon class="cls-1" points="489.07 365.28 369.87 246.07 354.58 261.35 473.79 382.09 395.84 382.09 395.84 403.5 512 403.5 512 287.33 489.07 287.33 489.07 365.28"/>
</svg>