<?xml version="1.0" encoding="UTF-8"?>
<svg id="katman_1" data-name="katman 1" xmlns="http://www.w3.org/2000/svg" viewBox="0 0 512 512">
  <defs>
    <style>
      .cls-1 {
        fill-rule: evenodd;
      }

      .cls-1, .cls-2 {
        fill: #878787;
      }
    </style>
  </defs>
  <path class="cls-1" d="M297.4,150c9.91-.33,19.82-.07,29.76-.09h4.09v-51.56c-5.3-.53-10.84-1.3-16.38-1.56-10.17-.45-20.35-.96-30.53-.72-15.54.32-30.24,4.11-43.09,13.32-14.73,10.6-22.82,25.47-25.9,43.05-1.27,7.25-1.61,14.76-1.79,22.13-.29,11.57-.06,23.14-.04,34.72v4.33h-49.35v57.6h49.06v144.78h59.95v-144.55h48.89c2.51-19.15,4.95-38.12,7.53-57.87-3.93,0-7.46-.01-10.99,0-13.9.06-45.82,0-45.82,0,0,0,.14-28.55.48-40.94.48-16.97,10.55-22.15,24.14-22.64Z"/>
  <path class="cls-2" d="M256,512C114.84,512,0,397.16,0,256S114.84,0,256,0s256,114.84,256,256-114.84,256-256,256ZM256,15.26C123.25,15.26,15.26,123.25,15.26,256s108,240.75,240.75,240.75,240.74-108,240.74-240.75S388.75,15.26,256,15.26Z"/>
</svg>