<?xml version="1.0" encoding="UTF-8"?>
<svg id="katman_1" data-name="katman 1" xmlns="http://www.w3.org/2000/svg" viewBox="0 0 512 512">
  <defs>
    <style>
      .cls-1 {
        fill: #878787;
      }
    </style>
  </defs>
  <path class="cls-1" d="M338.7,13.43C303.9,1.46,266.54-2.19,230,1.21c-14.56,1.54-29.09,3.85-43.13,8.08-54.2,14.72-102.29,48.98-136.3,93.5-22.66,29.94-37.97,65.2-45.48,101.96-13,65.03-.97,135.39,34.91,191.33,30.17,48.03,78.01,83.89,131.51,101.8,46.04,16,96.58,18.44,143.99,7.13,44.51-10.88,86.6-32.94,119.8-64.75,41.82-39.6,68.18-94.65,74.52-151.86,7.37-56.07-3.94-114.85-33.12-163.42-31.02-51.93-80.89-92.05-138-111.54ZM241.71,39.65c-.02,31.09.12,62.18-.08,93.27-25.94-1.03-51.74-5.19-76.58-12.78,16.27-33.71,40.89-66.33,76.66-80.49ZM241.65,242.74c-35.11-.02-70.22-.02-105.34.03,1.13-32.37,6.82-64.75,17.64-95.3,28.37,9.08,58.01,13.47,87.68,15.24.33,26.68-.08,53.35.02,80.04ZM166.45,47.29c7.9-3.57,16.36-5.69,24.31-9.13-22.96,18.96-39.7,44.62-52.04,71.52-12.88-3.87-24.1-12.05-35.54-18.94-.17-.5-.48-1.47-.63-1.97,18.69-17.44,40.67-31.02,63.9-41.49ZM81.05,110.79c14.39,10.05,29.64,19.01,45.86,25.77-11.5,34.19-18.17,70.06-18.95,106.15-26.38.12-52.75.1-79.14.13,2.83-48.03,20.7-95.59,52.24-132.05ZM80.51,402.29c-20.77-24.75-36.19-54.09-44.46-85.38-4.13-14.39-5.49-29.32-7.21-44.12,2.4-2.2,5.82-1.15,8.74-1.37,23.15.1,46.31-.18,69.46-.08,1.38,5.02,1.05,10.28,1.51,15.44,2.1,24.8,6.16,49.53,13.4,73.38,1.7,6.11,4.23,11.98,5.47,18.22-14.53,6.54-28.67,14.07-41.82,23.11-1.46.82-3.78,3.19-5.09.8ZM102.93,425.2c11.47-7.53,23.1-15.3,36.03-20.01,11.85,25.02,27.89,48.36,48.69,66.72-31.1-9.18-60.09-25.65-84.72-46.71ZM241.6,472.76c-16.86-6.73-32.07-17.37-44.06-31.02-12.46-14.44-23.43-30.32-31.8-47.49,24.36-8.38,50.06-12.47,75.75-13.45.4,30.66-.02,61.31.12,91.97ZM241.71,351.26c-29.74,1.52-59.26,6.63-87.65,15.67-10.5-30.74-17.04-63.01-17.52-95.54,35.03.08,70.06-.08,105.1-.1.28,26.65.05,53.32.07,79.97ZM392.46,74.46c6.34,4.71,12.7,9.48,18.07,15.32-11.77,7.76-24.3,14.28-36.96,20.39-13.31-26.52-29-52.8-52.2-71.82,25.63,7.54,49.42,20.56,71.09,36.11ZM301.5,58.69c14.46,11.73,25.56,27.03,34.96,42.99,3.31,5.82,7.06,11.55,8.94,18.07-24.38,7.64-49.76,12.35-75.3,13.2-.3-31.09.05-62.18-.13-93.27,11.78,3.79,22.22,10.98,31.53,19.01ZM269.89,162.69c29.82-1.17,59.27-6.84,87.78-15.59,11.62,30.52,17.19,63.05,18.35,95.62-35.39.02-70.79.17-106.18-.12-.03-26.63.12-53.28.05-79.92ZM269.99,271.37c35.3.1,70.59-.15,105.88.12-1.66,32.61-7.22,65.22-18.49,95.92-28.29-9.28-57.74-15.05-87.48-16.32-.03-26.58-.3-53.15.08-79.72ZM270.05,472.83c-.2-30.79-.37-61.58.07-92.37,15.73,1.55,31.6,2.49,47.03,6.12,9.65,1.74,18.99,4.72,28.51,7.06-5.36,14.1-14.39,26.42-23.43,38.35-13.4,17.94-31.48,32.27-52.17,40.84ZM376.82,448.52c-13.2,7.78-26.91,14.89-41.54,19.56-3.36,1.03-6.69,2.22-9.8,3.92,20-18.87,35.16-42.09,47.69-66.43,12.25,5.09,23.71,11.95,34.58,19.54-8.97,9.43-20.02,16.47-30.94,23.41ZM428.84,404.58c-13.76-10.76-29.4-18.77-45.11-26.23,6.54-19.66,12.83-39.53,15.74-60.13,2.8-15.52,3.64-31.26,5.11-46.91,26.03.23,52.07-.02,78.09.12-2.48,48.73-20.8,97.01-53.83,133.15ZM404.28,242.74c-.92-36.13-7.7-72.01-19.54-106.13,16.09-7.14,31.55-15.87,45.63-26.52,31.45,36.8,50.97,84.01,52.67,132.6-26.26.02-52.52.18-78.76.05Z"/>
</svg>