<?xml version="1.0" encoding="UTF-8"?>
<svg id="katman_1" data-name="katman 1" xmlns="http://www.w3.org/2000/svg" viewBox="0 0 512 512">
  <defs>
    <style>
      .cls-1 {
        fill: #878787;
      }
    </style>
  </defs>
  <path class="cls-1" d="M403.56,181.3c-2.02-19.74-9.58-37.21-24.26-51.2-15.43-14.73-34.31-21.24-55-22.34-35.26-1.92-118.98-3.14-148.37,1.66-33.59,5.47-55.61,25.08-64.9,58.26-7.15,25.52-5.73,143.17-1.56,168.4,5.69,34.5,26.08,56.62,60.27,65.43,23.66,6.11,139.95,5.33,166.05,1.1,34.53-5.58,56.74-25.86,65.71-59.99,6.86-26.2,4.46-137.68,2.06-161.31ZM375.95,331.19c-4.01,26.2-21.41,42.43-47.75,45.31-24.2,2.65-132.26,4.11-154.7-2.16-21.47-6-33.74-20.76-37.31-42.37-3.4-20.64-4.25-123.78-.04-151.38,3.95-25.98,21.34-42.19,47.53-45.12,26.58-2.98,122.2-3.3,147.66.6,26.15,4.01,42.35,21.44,45.22,47.83,2.68,24.61,3.44,120.84-.61,147.3ZM256.02,179.1c-42.48-.02-76.94,34.4-76.96,76.88-.02,42.48,34.4,76.94,76.88,76.96,42.48.02,76.94-34.4,76.96-76.88.02-42.48-34.4-76.94-76.88-76.96ZM255.5,305.71c-27.47-.25-49.54-22.72-49.29-50.19.25-27.47,22.72-49.54,50.19-49.29,27.47.25,49.54,22.72,49.29,50.19-.25,27.47-22.72,49.54-50.19,49.29ZM353.95,176.2c-.03,9.95-8.11,17.99-18.05,17.96-9.95-.02-17.99-8.11-17.96-18.05.02-9.95,8.11-17.99,18.05-17.96,9.95.03,17.99,8.11,17.96,18.05Z"/>
  <path class="cls-1" d="M256,512C114.84,512,0,397.16,0,256S114.84,0,256,0s256,114.84,256,256-114.84,256-256,256ZM256,15.26C123.25,15.26,15.26,123.25,15.26,256s108,240.75,240.75,240.75,240.74-108,240.74-240.75S388.75,15.26,256,15.26Z"/>
</svg>