<?xml version="1.0" encoding="UTF-8"?>
<svg id="katman_1" data-name="katman 1" xmlns="http://www.w3.org/2000/svg" viewBox="0 0 512 512">
  <defs>
    <style>
      .cls-1 {
        fill: #878787;
      }
    </style>
  </defs>
  <g>
    <path class="cls-1" d="M123.21,202.86h59.75v191.95h-59.75v-191.95ZM153.09,107.48c19.11,0,34.59,15.5,34.59,34.57s-15.48,34.62-34.59,34.62-34.64-15.53-34.64-34.62,15.48-34.57,34.64-34.57"/>
    <path class="cls-1" d="M220.4,202.86h57.23v26.25h.78c7.98-15.1,27.44-31.01,56.5-31.01,60.41,0,71.55,39.73,71.55,91.42v105.28h-59.62v-93.32c0-22.28-.44-50.9-31.01-50.9s-35.79,24.25-35.79,49.28v94.95h-59.63v-191.95Z"/>
  </g>
  <path class="cls-1" d="M256,512C114.84,512,0,397.16,0,256S114.84,0,256,0s256,114.84,256,256-114.84,256-256,256ZM256,15.26C123.25,15.26,15.26,123.25,15.26,256s108,240.75,240.75,240.75,240.74-108,240.74-240.75S388.75,15.26,256,15.26Z"/>
</svg>