<?xml version="1.0" encoding="UTF-8"?>
<svg id="katman_1" data-name="katman 1" xmlns="http://www.w3.org/2000/svg" viewBox="0 0 522 522">
  <defs>
    <style>
      .cls-1 {
        fill: none;
        stroke: #878787;
        stroke-miterlimit: 10;
        stroke-width: 10px;
      }

      .cls-2 {
        fill: #878787;
      }
    </style>
  </defs>
  <circle class="cls-1" cx="261" cy="261" r="256"/>
  <path class="cls-2" d="M329.9,413.65c-38.75-2.05-67.62-13.46-91.25-34.66-53.79-48.28-93.12-106.06-101.02-179.59-2.15-20.03,4.02-42.9,12.76-61.46,5.55-11.78,21.71-21.83,35.16-25.97,30.89-9.5,42.02-.72,46.23,30.78,1.43,10.67,1.47,21.56,3.43,32.11,3.47,18.63-1.78,32.39-19.48,40.64-11.28,5.26-14.98,13.38-8.02,24.52,16.08,25.72,31.85,51.66,48.73,76.85,9.22,13.75,21.42,17.26,35.02,4.43,11.18-10.55,23.53-10.6,36.78-3.86,10.14,5.16,20.72,9.45,30.88,14.57,12.26,6.18,26.44,10.63,25.62,28.86-.87,19.06-7.34,35.38-24.92,43.93-11.02,5.36-23.79,7.12-29.93,8.85Z"/>
</svg>