<?xml version="1.0" encoding="UTF-8"?>
<svg id="katman_1" data-name="katman 1" xmlns="http://www.w3.org/2000/svg" viewBox="0 0 522 522">
  <defs>
    <style>
      .cls-1 {
        stroke-width: 5px;
      }

      .cls-1, .cls-2 {
        fill: none;
        stroke: #878787;
        stroke-miterlimit: 10;
      }

      .cls-2 {
        stroke-width: 10px;
      }

      .cls-3 {
        fill: #878787;
      }
    </style>
  </defs>
  <circle class="cls-1" cx="261" cy="261" r="256"/>
  <circle class="cls-1" cx="261" cy="261" r="256"/>
  <circle class="cls-2" cx="261" cy="261" r="256"/>
  <path class="cls-3" d="M344.11,146.86c-31.08-34.79-78.41-46.58-121.41-30.25-22.15,8.41-41.29,23.64-54.42,43.37-11.86,17.82-18.95,38.77-18.43,60.13.08,3.3.34,6.6.8,9.91,3.59,26.09,18.55,49.3,32.18,71.21,17.57,28.26,35.84,56.08,54.22,83.81,3.31,4.99,6.62,9.98,9.93,14.97,11.11,16.72,17.28,16.75,28.12.47,28.46-42.76,57.33-85.36,83.45-129.55,23.21-39.27,15.69-90.34-14.44-124.08ZM261,261c-24.96,0-45.19-20.23-45.19-45.19s20.23-45.19,45.19-45.19,45.19,20.23,45.19,45.19-20.23,45.19-45.19,45.19Z"/>
</svg>