<?xml version="1.0" encoding="UTF-8"?>
<svg id="katman_1" data-name="katman 1" xmlns="http://www.w3.org/2000/svg" xmlns:xlink="http://www.w3.org/1999/xlink" viewBox="0 0 600 600">
  <defs>
    <style>
      .cls-1 {
        clip-path: url(#clippath-76);
      }

      .cls-2 {
        clip-path: url(#clippath-51);
      }

      .cls-3 {
        clip-path: url(#clippath-34);
      }

      .cls-4 {
        clip-path: url(#clippath-38);
      }

      .cls-5 {
        clip-path: url(#clippath-21);
      }

      .cls-6 {
        clip-path: url(#clippath-6);
      }

      .cls-7 {
        clip-path: url(#clippath-7);
      }

      .cls-8 {
        clip-path: url(#clippath-17);
      }

      .cls-9 {
        clip-path: url(#clippath-80);
      }

      .cls-10 {
        clip-path: url(#clippath-31);
      }

      .cls-11 {
        clip-path: url(#clippath-79);
      }

      .cls-12 {
        clip-path: url(#clippath-75);
      }

      .cls-13 {
        clip-path: url(#clippath-15);
      }

      .cls-14 {
        clip-path: url(#clippath-33);
      }

      .cls-15 {
        clip-path: url(#clippath-61);
      }

      .cls-16 {
        clip-path: url(#clippath-100);
      }

      .cls-17 {
        clip-path: url(#clippath-18);
      }

      .cls-18 {
        clip-path: url(#clippath-47);
      }

      .cls-19 {
        clip-path: url(#clippath-4);
      }

      .cls-20 {
        clip-path: url(#clippath-71);
      }

      .cls-21 {
        clip-path: url(#clippath-22);
      }

      .cls-22 {
        clip-path: url(#clippath-23);
      }

      .cls-23 {
        clip-path: url(#clippath-82);
      }

      .cls-24 {
        clip-path: url(#clippath-54);
      }

      .cls-25 {
        clip-path: url(#clippath-66);
      }

      .cls-26 {
        clip-path: url(#clippath-9);
      }

      .cls-27 {
        clip-path: url(#clippath-70);
      }

      .cls-28 {
        clip-path: url(#clippath-10);
      }

      .cls-29 {
        clip-path: url(#clippath-42);
      }

      .cls-30 {
        fill: #676767;
      }

      .cls-31 {
        clip-path: url(#clippath-59);
      }

      .cls-32 {
        clip-path: url(#clippath-43);
      }

      .cls-33 {
        clip-path: url(#clippath-64);
      }

      .cls-34 {
        clip-path: url(#clippath-101);
      }

      .cls-35 {
        clip-path: url(#clippath-25);
      }

      .cls-36 {
        clip-path: url(#clippath-27);
      }

      .cls-37 {
        fill: #e40d1a;
      }

      .cls-38 {
        clip-path: url(#clippath-60);
      }

      .cls-39 {
        clip-path: url(#clippath-93);
      }

      .cls-40 {
        clip-path: url(#clippath-11);
      }

      .cls-41 {
        clip-path: url(#clippath-57);
      }

      .cls-42 {
        clip-path: url(#clippath-88);
      }

      .cls-43 {
        fill: none;
      }

      .cls-44 {
        clip-path: url(#clippath-85);
      }

      .cls-45 {
        clip-path: url(#clippath-36);
      }

      .cls-46 {
        clip-path: url(#clippath-92);
      }

      .cls-47 {
        clip-path: url(#clippath-35);
      }

      .cls-48 {
        clip-path: url(#clippath-98);
      }

      .cls-49 {
        clip-path: url(#clippath-48);
      }

      .cls-50 {
        clip-path: url(#clippath-28);
      }

      .cls-51 {
        fill: #137bc0;
      }

      .cls-52 {
        clip-path: url(#clippath-1);
      }

      .cls-53 {
        clip-path: url(#clippath-56);
      }

      .cls-54 {
        clip-path: url(#clippath-90);
      }

      .cls-55 {
        clip-path: url(#clippath-45);
      }

      .cls-56 {
        clip-path: url(#clippath-99);
      }

      .cls-57 {
        clip-path: url(#clippath-89);
      }

      .cls-58 {
        clip-path: url(#clippath-46);
      }

      .cls-59 {
        clip-path: url(#clippath-40);
      }

      .cls-60 {
        clip-path: url(#clippath-96);
      }

      .cls-61 {
        clip-path: url(#clippath-5);
      }

      .cls-62 {
        clip-path: url(#clippath-20);
      }

      .cls-63 {
        clip-path: url(#clippath-95);
      }

      .cls-64 {
        clip-path: url(#clippath-8);
      }

      .cls-65 {
        clip-path: url(#clippath-52);
      }

      .cls-66 {
        clip-path: url(#clippath-41);
      }

      .cls-67 {
        clip-path: url(#clippath-67);
      }

      .cls-68 {
        clip-path: url(#clippath-74);
      }

      .cls-69 {
        clip-path: url(#clippath-3);
      }

      .cls-70 {
        clip-path: url(#clippath-26);
      }

      .cls-71 {
        clip-path: url(#clippath-91);
      }

      .cls-72 {
        clip-path: url(#clippath-12);
      }

      .cls-73 {
        clip-path: url(#clippath-50);
      }

      .cls-74 {
        clip-path: url(#clippath-14);
      }

      .cls-75 {
        clip-path: url(#clippath-97);
      }

      .cls-76 {
        clip-path: url(#clippath-30);
      }

      .cls-77 {
        clip-path: url(#clippath-77);
      }

      .cls-78 {
        clip-path: url(#clippath-19);
      }

      .cls-79 {
        clip-path: url(#clippath-78);
      }

      .cls-80 {
        clip-path: url(#clippath-72);
      }

      .cls-81 {
        clip-path: url(#clippath-84);
      }

      .cls-82 {
        clip-path: url(#clippath-32);
      }

      .cls-83 {
        clip-path: url(#clippath-55);
      }

      .cls-84 {
        clip-path: url(#clippath-73);
      }

      .cls-85 {
        clip-path: url(#clippath-53);
      }

      .cls-86 {
        clip-path: url(#clippath-39);
      }

      .cls-87 {
        clip-path: url(#clippath-81);
      }

      .cls-88 {
        clip-path: url(#clippath-16);
      }

      .cls-89 {
        clip-path: url(#clippath-2);
      }

      .cls-90 {
        clip-path: url(#clippath-29);
      }

      .cls-91 {
        clip-path: url(#clippath-49);
      }

      .cls-92 {
        clip-path: url(#clippath-37);
      }

      .cls-93 {
        clip-path: url(#clippath-58);
      }

      .cls-94 {
        clip-path: url(#clippath-13);
      }

      .cls-95 {
        clip-path: url(#clippath-86);
      }

      .cls-96 {
        clip-path: url(#clippath-63);
      }

      .cls-97 {
        clip-path: url(#clippath-24);
      }

      .cls-98 {
        clip-path: url(#clippath-94);
      }

      .cls-99 {
        clip-path: url(#clippath);
      }

      .cls-100 {
        clip-path: url(#clippath-87);
      }

      .cls-101 {
        clip-path: url(#clippath-68);
      }

      .cls-102 {
        clip-path: url(#clippath-83);
      }

      .cls-103 {
        clip-path: url(#clippath-65);
      }

      .cls-104 {
        clip-path: url(#clippath-44);
      }

      .cls-105 {
        clip-path: url(#clippath-62);
      }

      .cls-106 {
        clip-path: url(#clippath-69);
      }
    </style>
    <clipPath id="clippath">
      <rect class="cls-43" width="600" height="600"/>
    </clipPath>
    <clipPath id="clippath-1">
      <rect class="cls-43" width="600" height="600"/>
    </clipPath>
    <clipPath id="clippath-2">
      <rect class="cls-43" width="600" height="600"/>
    </clipPath>
    <clipPath id="clippath-3">
      <rect class="cls-43" width="600" height="600"/>
    </clipPath>
    <clipPath id="clippath-4">
      <rect class="cls-43" width="600" height="600"/>
    </clipPath>
    <clipPath id="clippath-5">
      <rect class="cls-43" width="600" height="600"/>
    </clipPath>
    <clipPath id="clippath-6">
      <rect class="cls-43" width="600" height="600"/>
    </clipPath>
    <clipPath id="clippath-7">
      <rect class="cls-43" width="600" height="600"/>
    </clipPath>
    <clipPath id="clippath-8">
      <rect class="cls-43" width="600" height="600"/>
    </clipPath>
    <clipPath id="clippath-9">
      <rect class="cls-43" width="600" height="600"/>
    </clipPath>
    <clipPath id="clippath-10">
      <rect class="cls-43" width="600" height="600"/>
    </clipPath>
    <clipPath id="clippath-11">
      <rect class="cls-43" width="600" height="600"/>
    </clipPath>
    <clipPath id="clippath-12">
      <rect class="cls-43" width="600" height="600"/>
    </clipPath>
    <clipPath id="clippath-13">
      <rect class="cls-43" width="600" height="600"/>
    </clipPath>
    <clipPath id="clippath-14">
      <rect class="cls-43" width="600" height="600"/>
    </clipPath>
    <clipPath id="clippath-15">
      <rect class="cls-43" width="600" height="600"/>
    </clipPath>
    <clipPath id="clippath-16">
      <rect class="cls-43" width="600" height="600"/>
    </clipPath>
    <clipPath id="clippath-17">
      <rect class="cls-43" width="600" height="600"/>
    </clipPath>
    <clipPath id="clippath-18">
      <rect class="cls-43" width="600" height="600"/>
    </clipPath>
    <clipPath id="clippath-19">
      <rect class="cls-43" width="600" height="600"/>
    </clipPath>
    <clipPath id="clippath-20">
      <rect class="cls-43" width="600" height="600"/>
    </clipPath>
    <clipPath id="clippath-21">
      <rect class="cls-43" width="600" height="600"/>
    </clipPath>
    <clipPath id="clippath-22">
      <rect class="cls-43" width="600" height="600"/>
    </clipPath>
    <clipPath id="clippath-23">
      <rect class="cls-43" width="600" height="600"/>
    </clipPath>
    <clipPath id="clippath-24">
      <rect class="cls-43" width="600" height="600"/>
    </clipPath>
    <clipPath id="clippath-25">
      <rect class="cls-43" width="600" height="600"/>
    </clipPath>
    <clipPath id="clippath-26">
      <rect class="cls-43" width="600" height="600"/>
    </clipPath>
    <clipPath id="clippath-27">
      <rect class="cls-43" width="600" height="600"/>
    </clipPath>
    <clipPath id="clippath-28">
      <rect class="cls-43" width="600" height="600"/>
    </clipPath>
    <clipPath id="clippath-29">
      <rect class="cls-43" width="600" height="600"/>
    </clipPath>
    <clipPath id="clippath-30">
      <rect class="cls-43" width="600" height="600"/>
    </clipPath>
    <clipPath id="clippath-31">
      <rect class="cls-43" width="600" height="600"/>
    </clipPath>
    <clipPath id="clippath-32">
      <rect class="cls-43" width="600" height="600"/>
    </clipPath>
    <clipPath id="clippath-33">
      <rect class="cls-43" width="600" height="600"/>
    </clipPath>
    <clipPath id="clippath-34">
      <rect class="cls-43" width="600" height="600"/>
    </clipPath>
    <clipPath id="clippath-35">
      <rect class="cls-43" width="600" height="600"/>
    </clipPath>
    <clipPath id="clippath-36">
      <rect class="cls-43" width="600" height="600"/>
    </clipPath>
    <clipPath id="clippath-37">
      <rect class="cls-43" width="600" height="600"/>
    </clipPath>
    <clipPath id="clippath-38">
      <rect class="cls-43" width="600" height="600"/>
    </clipPath>
    <clipPath id="clippath-39">
      <rect class="cls-43" width="600" height="600"/>
    </clipPath>
    <clipPath id="clippath-40">
      <rect class="cls-43" width="600" height="600"/>
    </clipPath>
    <clipPath id="clippath-41">
      <rect class="cls-43" width="600" height="600"/>
    </clipPath>
    <clipPath id="clippath-42">
      <rect class="cls-43" width="600" height="600"/>
    </clipPath>
    <clipPath id="clippath-43">
      <rect class="cls-43" width="600" height="600"/>
    </clipPath>
    <clipPath id="clippath-44">
      <rect class="cls-43" width="600" height="600"/>
    </clipPath>
    <clipPath id="clippath-45">
      <rect class="cls-43" width="600" height="600"/>
    </clipPath>
    <clipPath id="clippath-46">
      <rect class="cls-43" width="600" height="600"/>
    </clipPath>
    <clipPath id="clippath-47">
      <rect class="cls-43" width="600" height="600"/>
    </clipPath>
    <clipPath id="clippath-48">
      <rect class="cls-43" width="600" height="600"/>
    </clipPath>
    <clipPath id="clippath-49">
      <rect class="cls-43" width="600" height="600"/>
    </clipPath>
    <clipPath id="clippath-50">
      <rect class="cls-43" width="600" height="600"/>
    </clipPath>
    <clipPath id="clippath-51">
      <rect class="cls-43" width="600" height="600"/>
    </clipPath>
    <clipPath id="clippath-52">
      <rect class="cls-43" width="600" height="600"/>
    </clipPath>
    <clipPath id="clippath-53">
      <rect class="cls-43" width="600" height="600"/>
    </clipPath>
    <clipPath id="clippath-54">
      <rect class="cls-43" width="600" height="600"/>
    </clipPath>
    <clipPath id="clippath-55">
      <rect class="cls-43" width="600" height="600"/>
    </clipPath>
    <clipPath id="clippath-56">
      <rect class="cls-43" width="600" height="600"/>
    </clipPath>
    <clipPath id="clippath-57">
      <rect class="cls-43" width="600" height="600"/>
    </clipPath>
    <clipPath id="clippath-58">
      <rect class="cls-43" width="600" height="600"/>
    </clipPath>
    <clipPath id="clippath-59">
      <rect class="cls-43" width="600" height="600"/>
    </clipPath>
    <clipPath id="clippath-60">
      <rect class="cls-43" width="600" height="600"/>
    </clipPath>
    <clipPath id="clippath-61">
      <rect class="cls-43" width="600" height="600"/>
    </clipPath>
    <clipPath id="clippath-62">
      <rect class="cls-43" width="600" height="600"/>
    </clipPath>
    <clipPath id="clippath-63">
      <rect class="cls-43" width="600" height="600"/>
    </clipPath>
    <clipPath id="clippath-64">
      <rect class="cls-43" width="600" height="600"/>
    </clipPath>
    <clipPath id="clippath-65">
      <rect class="cls-43" width="600" height="600"/>
    </clipPath>
    <clipPath id="clippath-66">
      <rect class="cls-43" width="600" height="600"/>
    </clipPath>
    <clipPath id="clippath-67">
      <rect class="cls-43" width="600" height="600"/>
    </clipPath>
    <clipPath id="clippath-68">
      <rect class="cls-43" width="600" height="600"/>
    </clipPath>
    <clipPath id="clippath-69">
      <rect class="cls-43" width="600" height="600"/>
    </clipPath>
    <clipPath id="clippath-70">
      <rect class="cls-43" width="600" height="600"/>
    </clipPath>
    <clipPath id="clippath-71">
      <rect class="cls-43" width="600" height="600"/>
    </clipPath>
    <clipPath id="clippath-72">
      <rect class="cls-43" width="600" height="600"/>
    </clipPath>
    <clipPath id="clippath-73">
      <rect class="cls-43" width="600" height="600"/>
    </clipPath>
    <clipPath id="clippath-74">
      <rect class="cls-43" width="600" height="600"/>
    </clipPath>
    <clipPath id="clippath-75">
      <rect class="cls-43" width="600" height="600"/>
    </clipPath>
    <clipPath id="clippath-76">
      <rect class="cls-43" width="600" height="600"/>
    </clipPath>
    <clipPath id="clippath-77">
      <rect class="cls-43" width="600" height="600"/>
    </clipPath>
    <clipPath id="clippath-78">
      <rect class="cls-43" width="600" height="600"/>
    </clipPath>
    <clipPath id="clippath-79">
      <rect class="cls-43" width="600" height="600"/>
    </clipPath>
    <clipPath id="clippath-80">
      <rect class="cls-43" width="600" height="600"/>
    </clipPath>
    <clipPath id="clippath-81">
      <rect class="cls-43" width="600" height="600"/>
    </clipPath>
    <clipPath id="clippath-82">
      <rect class="cls-43" width="600" height="600"/>
    </clipPath>
    <clipPath id="clippath-83">
      <rect class="cls-43" width="600" height="600"/>
    </clipPath>
    <clipPath id="clippath-84">
      <rect class="cls-43" width="600" height="600"/>
    </clipPath>
    <clipPath id="clippath-85">
      <rect class="cls-43" width="600" height="600"/>
    </clipPath>
    <clipPath id="clippath-86">
      <rect class="cls-43" width="600" height="600"/>
    </clipPath>
    <clipPath id="clippath-87">
      <rect class="cls-43" width="600" height="600"/>
    </clipPath>
    <clipPath id="clippath-88">
      <rect class="cls-43" width="600" height="600"/>
    </clipPath>
    <clipPath id="clippath-89">
      <rect class="cls-43" width="600" height="600"/>
    </clipPath>
    <clipPath id="clippath-90">
      <rect class="cls-43" width="600" height="600"/>
    </clipPath>
    <clipPath id="clippath-91">
      <rect class="cls-43" width="600" height="600"/>
    </clipPath>
    <clipPath id="clippath-92">
      <rect class="cls-43" width="600" height="600"/>
    </clipPath>
    <clipPath id="clippath-93">
      <rect class="cls-43" width="600" height="600"/>
    </clipPath>
    <clipPath id="clippath-94">
      <rect class="cls-43" width="600" height="600"/>
    </clipPath>
    <clipPath id="clippath-95">
      <rect class="cls-43" width="600" height="600"/>
    </clipPath>
    <clipPath id="clippath-96">
      <rect class="cls-43" width="600" height="600"/>
    </clipPath>
    <clipPath id="clippath-97">
      <rect class="cls-43" width="600" height="600"/>
    </clipPath>
    <clipPath id="clippath-98">
      <rect class="cls-43" width="600" height="600"/>
    </clipPath>
    <clipPath id="clippath-99">
      <rect class="cls-43" width="600" height="600"/>
    </clipPath>
    <clipPath id="clippath-100">
      <rect class="cls-43" width="600" height="600"/>
    </clipPath>
    <clipPath id="clippath-101">
      <rect class="cls-43" width="600" height="600"/>
    </clipPath>
  </defs>
  <g id="figure_1" data-name="figure 1">
    <g id="patch_1" data-name="patch 1">
      <path class="cls-43" d="M0,600h600V0H0v600Z"/>
    </g>
    <g id="axes_1" data-name="axes 1">
      <g id="patch_2" data-name="patch 2">
        <g class="cls-99">
          <path class="cls-30" d="M300,576.79c-36.53,0-72.17-7.09-105.92-21.07-33.75-13.98-63.97-34.17-89.8-60-25.83-25.83-46.02-56.04-60-89.8-13.98-33.75-21.07-69.39-21.07-105.92s7.09-72.17,21.07-105.92c13.98-33.75,34.17-63.97,60-89.8,25.83-25.83,56.04-46.02,89.8-60,33.75-13.98,69.39-21.07,105.92-21.07s72.17,7.09,105.92,21.07c33.75,13.98,63.96,34.17,89.8,60,25.83,25.83,46.02,56.04,60,89.8,13.98,33.75,21.07,69.39,21.07,105.92s-7.09,72.17-21.07,105.92c-13.98,33.75-34.17,63.96-60,89.8-25.83,25.83-56.04,46.02-89.8,60-33.75,13.98-69.39,21.07-105.92,21.07ZM300,31.33c-71.76,0-139.23,27.95-189.98,78.69-50.74,50.75-78.69,118.21-78.69,189.98s27.95,139.23,78.69,189.98c50.75,50.75,118.21,78.69,189.98,78.69s139.23-27.95,189.98-78.69,78.69-118.21,78.69-189.98-27.95-139.23-78.69-189.98c-50.75-50.74-118.21-78.69-189.98-78.69Z"/>
        </g>
      </g>
      <g id="patch_3" data-name="patch 3">
        <g class="cls-52">
          <g>
            <path class="cls-51" d="M300,300h223.64v-.14s0-.05,0-.05v-.05s0-.05,0-.05v-.05s0-.05,0-.05v-.05s0-.05,0-.05v-.05s0-.05,0-.05v-.05s0-.05,0-.05v-.05s0-.05,0-.05v-.05s0-.05,0-.05v-.05s0-.05,0-.05v-.05s0-.05,0-.05v-.05s0-.05,0-.05v-.05s0-.05,0-.05v-.05s0-.05,0-.05v-.05s0-.05,0-.05v-.05s0-.05,0-.05v-.05s0-.05,0-.05v-.05s0-.05,0-.05v-.05s0-.05,0-.05v-.05s0-.05,0-.05v-.05s0-.05,0-.05v-.05s0-.05,0-.05v-.05s0-.05,0-.05v-.05s0-.05,0-.05v-.05s0-.05,0-.05v-.05s0-.05,0-.05v-.05s0-.05,0-.05v-.05s0-.05,0-.05v-.05s0-.05,0-.05v-.05s0-.05,0-.05v-.05s0-.05,0-.05v-.05s0-.05,0-.05v-.05s0-.05,0-.05v-.05s0-.05,0-.05v-.05s0-.05,0-.05v-.05s0-.05,0-.05v-.05s0-.05,0-.05v-.05s0-.05,0-.05v-.05s0-.05,0-.05v-.05s0-.05,0-.05v-.05s0-.05,0-.05v-.05s0-.05,0-.05v-.05s0-.05,0-.05v-.05s0-.05,0-.05v-.05s0-.05,0-.05v-.05s0-.05,0-.05v-.05s0-.05,0-.05v-.05s0-.05,0-.05v-.05s0-.05,0-.05v-.05s0-.05,0-.05v-.05s0-.05,0-.05v-.05s0-.05,0-.05v-.05s0-.05,0-.05v-.05s0-.05,0-.05v-.05s0-.05,0-.05v-.05s0-.05,0-.05v-.05s0-.05,0-.05v-.05s0-.05,0-.05v-.05s0-.05,0-.05v-.05s0-.05,0-.05v-.05s0-.05,0-.05v-.05s0-.05,0-.05v-.05s0-.05,0-.05v-.05s0-.05,0-.05v-.05s0-.05,0-.05v-.05s0-.05,0-.05v-.05s0-.05,0-.05v-.05s0-.05,0-.05v-.05s0-.05,0-.05v-.05s0-.05,0-.05v-.05s0-.05,0-.05v-.05s0-.05,0-.05v-.05s0-.05,0-.05v-.05s0-.05,0-.05v-.05s0-.05,0-.05v-.05s0-.05,0-.05v-.05s0-.05,0-.05v-.05s0-.05,0-.05v-.05s0-.05,0-.05v-.05s0-.05,0-.05v-.05s0-.05,0-.05v-.05s0-.05,0-.05v-.05s0-.05,0-.05v-.05s0-.05,0-.05v-.05s0-.05,0-.05v-.05s0-.05,0-.05v-.05s0-.05,0-.05v-.05s0-.05,0-.05v-.05s0-.05,0-.05v-.05s0-.05,0-.05v-.05s0-.05,0-.05v-.05s0-.05,0-.05v-.05s0-.05,0-.05v-.05s0-.05,0-.05v-.05s0-.05,0-.05v-.05s0-.05,0-.05v-.05s0-.05,0-.05v-.05s0-.05,0-.05v-.05s0-.05,0-.05v-.05s0-.05,0-.05v-.05s0-.05,0-.05v-.05s0-.05,0-.05v-.05s0-.05,0-.05v-.05s0-.05,0-.05v-.05s0-.05,0-.05v-.05s0-.05,0-.05v-.05s0-.05,0-.05v-.05s0-.05,0-.05v-.05s0-.05,0-.05v-.05s0-.05,0-.05v-.05s0-.05,0-.05v-.05s0-.05,0-.05v-.05s0-.05,0-.05v-.05s0-.05,0-.05v-.05s0-.05,0-.05v-.05s0-.05,0-.05v-.05s0-.05,0-.05v-.05s0-.05,0-.05v-.05s0-.05,0-.05v-.05s0-.05,0-.05v-.05s0-.05,0-.05v-.05s0-.05,0-.05v-.05s0-.05,0-.05v-.05s0-.05,0-.05v-.05s0-.05,0-.05v-.05s0-.05,0-.05v-.05s0-.05,0-.05v-.05s0-.05,0-.05v-.05s0-.05,0-.05v-.05s0-.05,0-.05v-.05s0-.05,0-.05v-.05s0-.05,0-.05v-.05s0-.05,0-.05v-.05s0-.05,0-.05v-.05s0-.05,0-.05v-.05s0-.05,0-.05v-.05s0-.05,0-.05v-.05s0-.05,0-.05v-.05s0-.05,0-.05v-.05s0-.05,0-.05v-.05s0-.05,0-.05v-.05s0-.05,0-.05v-.05s0-.05,0-.05v-.05s0-.05,0-.05v-.05s0-.05,0-.05v-.05s0-.05,0-.05v-.05s0-.05,0-.05v-.05s0-.05,0-.05v-.05s0-.05,0-.05v-.05s-223.2,14.04-223.2,14.04Z"/>
            <path class="cls-51" d="M523.64,300.68h-223.64l-.04-1.35,223.87-14.08.04.68-.67.18h.68s.17,3.13.17,3.13l-.67.16h.68s.09,2.14.09,2.14l-.67.16.68-.02.03.85-.67.11.68.03.02.71-.67.11.68.03v.28s-.67.11-.67.11l.68.03.02.99-.67.11.68.03.03,1.33-.68.14.68.04.03,4.07-.68.05ZM321.52,299.32h201.44v-.03l.68-.14-.68-.04-.05-3.82.67-.14-.68-.03v-.56s.66-.11.66-.11l-.68-.03v-.28s.67-.11.67-.11l-.68-.03-.06-1.97.67-.11-.68-.03-.06-1.41.67-.16-.68.02-.03-.61.67-.16h-.68s-.03-.59-.03-.59l.67-.16h-.68s-.12-2.14-.12-2.14l-201.04,12.65Z"/>
          </g>
        </g>
      </g>
      <g id="line2d_1" data-name="line2d 1">
        <g class="cls-89">
          <rect class="cls-37" x="528.28" y="299.19" width="12.53" height="1.62"/>
        </g>
      </g>
      <g id="line2d_2" data-name="line2d 2">
        <g class="cls-69">
          <rect class="cls-37" x="527.82" y="284.46" width="12.53" height="1.62" transform="translate(-16.82 34.02) rotate(-3.59)"/>
        </g>
      </g>
      <g id="line2d_3" data-name="line2d 3">
        <g class="cls-19">
          <rect class="cls-37" x="526.43" y="269.79" width="12.53" height="1.62" transform="translate(-29.72 68.9) rotate(-7.2)"/>
        </g>
      </g>
      <g id="line2d_4" data-name="line2d 4">
        <g class="cls-61">
          <rect class="cls-37" x="524.12" y="255.24" width="12.53" height="1.62" transform="translate(-38.68 104.26) rotate(-10.83)"/>
        </g>
      </g>
      <g id="line2d_5" data-name="line2d 5">
        <g class="cls-6">
          <rect class="cls-37" x="520.91" y="240.86" width="12.53" height="1.62" transform="translate(-43.57 138.85) rotate(-14.41)"/>
        </g>
      </g>
      <g id="line2d_6" data-name="line2d 6">
        <g class="cls-7">
          <rect class="cls-37" x="516.8" y="226.71" width="12.53" height="1.62" transform="translate(-44.68 172.48) rotate(-17.97)"/>
        </g>
      </g>
      <g id="line2d_7" data-name="line2d 7">
        <g class="cls-64">
          <rect class="cls-37" x="511.81" y="212.85" width="12.53" height="1.62" transform="translate(-42.27 205.57) rotate(-21.58)"/>
        </g>
      </g>
      <g id="line2d_8" data-name="line2d 8">
        <g class="cls-26">
          <rect class="cls-37" x="505.96" y="199.32" width="12.53" height="1.62" transform="translate(-36.44 237.44) rotate(-25.23)"/>
        </g>
      </g>
      <g id="line2d_9" data-name="line2d 9">
        <g class="cls-28">
          <rect class="cls-37" x="499.27" y="186.19" width="12.53" height="1.62" transform="translate(-27.56 266.64) rotate(-28.8)"/>
        </g>
      </g>
      <g id="line2d_10" data-name="line2d 10">
        <g class="cls-40">
          <rect class="cls-37" x="491.77" y="173.51" width="12.53" height="1.62" transform="translate(-15.91 293.85) rotate(-32.38)"/>
        </g>
      </g>
      <g id="line2d_11" data-name="line2d 11">
        <g class="cls-72">
          <rect class="cls-37" x="483.48" y="161.33" width="12.53" height="1.62" transform="translate(-1.79 318.77) rotate(-35.99)"/>
        </g>
      </g>
      <g id="line2d_12" data-name="line2d 12">
        <g class="cls-94">
          <rect class="cls-37" x="474.45" y="149.68" width="12.53" height="1.62" transform="translate(14.39 340.96) rotate(-39.6)"/>
        </g>
      </g>
      <g id="line2d_13" data-name="line2d 13">
        <g class="cls-74">
          <rect class="cls-37" x="464.71" y="138.63" width="12.53" height="1.62" transform="translate(32.14 360.09) rotate(-43.19)"/>
        </g>
      </g>
      <g id="line2d_14" data-name="line2d 14">
        <g class="cls-13">
          <rect class="cls-37" x="454.29" y="128.21" width="12.53" height="1.62" transform="translate(51.15 376.3) rotate(-46.78)"/>
        </g>
      </g>
      <g id="line2d_15" data-name="line2d 15">
        <g class="cls-88">
          <rect class="cls-37" x="443.24" y="118.47" width="12.53" height="1.62" transform="translate(71.15 389.7) rotate(-50.42)"/>
        </g>
      </g>
      <g id="line2d_16" data-name="line2d 16">
        <g class="cls-8">
          <rect class="cls-37" x="431.6" y="109.44" width="12.53" height="1.62" transform="translate(91.34 399.73) rotate(-54.01)"/>
        </g>
      </g>
      <g id="line2d_17" data-name="line2d 17">
        <g class="cls-17">
          <rect class="cls-37" x="419.41" y="101.15" width="12.53" height="1.62" transform="translate(111.54 406.79) rotate(-57.61)"/>
        </g>
      </g>
      <g id="line2d_18" data-name="line2d 18">
        <g class="cls-78">
          <rect class="cls-37" x="406.73" y="93.66" width="12.53" height="1.62" transform="translate(131.15 410.77) rotate(-61.18)"/>
        </g>
      </g>
      <g id="line2d_19" data-name="line2d 19">
        <g class="cls-62">
          <rect class="cls-37" x="393.6" y="86.97" width="12.53" height="1.62" transform="translate(150.25 412.26) rotate(-64.81)"/>
        </g>
      </g>
      <g id="line2d_20" data-name="line2d 20">
        <g class="cls-5">
          <rect class="cls-37" x="380.08" y="81.11" width="12.53" height="1.62" transform="translate(167.86 410.92) rotate(-68.38)"/>
        </g>
      </g>
      <g id="line2d_21" data-name="line2d 21">
        <g class="cls-21">
          <rect class="cls-37" x="366.21" y="76.12" width="12.53" height="1.62" transform="translate(184.21 407.41) rotate(-72)"/>
        </g>
      </g>
      <g id="line2d_22" data-name="line2d 22">
        <g class="cls-22">
          <rect class="cls-37" x="352.06" y="72.01" width="12.53" height="1.62" transform="translate(198.69 401.79) rotate(-75.6)"/>
        </g>
      </g>
      <g id="line2d_23" data-name="line2d 23">
        <g class="cls-97">
          <rect class="cls-37" x="337.68" y="68.8" width="12.53" height="1.62" transform="translate(211.19 394.45) rotate(-79.21)"/>
        </g>
      </g>
      <g id="line2d_24" data-name="line2d 24">
        <g class="cls-35">
          <rect class="cls-37" x="323.13" y="66.49" width="12.53" height="1.62" transform="translate(221.37 385.68) rotate(-82.81)"/>
        </g>
      </g>
      <g id="line2d_25" data-name="line2d 25">
        <g class="cls-70">
          <rect class="cls-37" x="308.46" y="65.11" width="12.53" height="1.62" transform="translate(229.23 375.9) rotate(-86.41)"/>
        </g>
      </g>
      <g id="line2d_26" data-name="line2d 26">
        <g class="cls-36">
          <rect class="cls-37" x="299.19" y="59.19" width="1.62" height="12.53"/>
        </g>
      </g>
      <g id="line2d_27" data-name="line2d 27">
        <g class="cls-50">
          <rect class="cls-37" x="284.46" y="59.65" width="1.62" height="12.53" transform="translate(-3.58 18.05) rotate(-3.6)"/>
        </g>
      </g>
      <g id="line2d_28" data-name="line2d 28">
        <g class="cls-90">
          <rect class="cls-37" x="269.79" y="61.04" width="1.62" height="12.53" transform="translate(-6.3 34.45) rotate(-7.2)"/>
        </g>
      </g>
      <g id="line2d_29" data-name="line2d 29">
        <g class="cls-76">
          <rect class="cls-37" x="255.24" y="63.34" width="1.62" height="12.53" transform="translate(-8.51 49.21) rotate(-10.8)"/>
        </g>
      </g>
      <g id="line2d_30" data-name="line2d 30">
        <g class="cls-10">
          <rect class="cls-37" x="240.86" y="66.56" width="1.62" height="12.53" transform="translate(-10.52 62.38) rotate(-14.4)"/>
        </g>
      </g>
      <g id="line2d_31" data-name="line2d 31">
        <g class="cls-82">
          <rect class="cls-37" x="226.71" y="70.67" width="1.62" height="12.53" transform="translate(-12.64 74.07) rotate(-18)"/>
        </g>
      </g>
      <g id="line2d_32" data-name="line2d 32">
        <g class="cls-14">
          <rect class="cls-37" x="212.85" y="75.66" width="1.62" height="12.53" transform="translate(-15.15 84.41) rotate(-21.6)"/>
        </g>
      </g>
      <g id="line2d_33" data-name="line2d 33">
        <g class="cls-3">
          <rect class="cls-37" x="199.32" y="81.51" width="1.62" height="12.53" transform="translate(-18.33 93.56) rotate(-25.2)"/>
        </g>
      </g>
      <g id="line2d_34" data-name="line2d 34">
        <g class="cls-47">
          <rect class="cls-37" x="186.19" y="88.2" width="1.62" height="12.53" transform="translate(-22.38 101.77) rotate(-28.8)"/>
        </g>
      </g>
      <g id="line2d_35" data-name="line2d 35">
        <g class="cls-45">
          <rect class="cls-37" x="173.51" y="95.7" width="1.62" height="12.53" transform="translate(-27.5 109.28) rotate(-32.4)"/>
        </g>
      </g>
      <g id="line2d_36" data-name="line2d 36">
        <g class="cls-92">
          <rect class="cls-37" x="161.33" y="103.98" width="1.62" height="12.53" transform="translate(-33.84 116.35) rotate(-36)"/>
        </g>
      </g>
      <g id="line2d_37" data-name="line2d 37">
        <g class="cls-4">
          <rect class="cls-37" x="149.68" y="113.01" width="1.62" height="12.53" transform="translate(-41.5 123.3) rotate(-39.6)"/>
        </g>
      </g>
      <g id="line2d_38" data-name="line2d 38">
        <g class="cls-86">
          <rect class="cls-37" x="138.63" y="122.76" width="1.62" height="12.53" transform="translate(-50.53 130.42) rotate(-43.2)"/>
        </g>
      </g>
      <g id="line2d_39" data-name="line2d 39">
        <g class="cls-59">
          <rect class="cls-37" x="128.21" y="133.18" width="1.62" height="12.53" transform="translate(-60.95 138.05) rotate(-46.8)"/>
        </g>
      </g>
      <g id="line2d_40" data-name="line2d 40">
        <g class="cls-66">
          <rect class="cls-37" x="118.47" y="144.23" width="1.62" height="12.53" transform="translate(-72.71 146.48) rotate(-50.4)"/>
        </g>
      </g>
      <g id="line2d_41" data-name="line2d 41">
        <g class="cls-29">
          <rect class="cls-37" x="109.44" y="155.87" width="1.62" height="12.53" transform="translate(-85.73 156.03) rotate(-54)"/>
        </g>
      </g>
      <g id="line2d_42" data-name="line2d 42">
        <g class="cls-32">
          <rect class="cls-37" x="101.15" y="168.06" width="1.62" height="12.53" transform="translate(-99.86 167.02) rotate(-57.6)"/>
        </g>
      </g>
      <g id="line2d_43" data-name="line2d 43">
        <g class="cls-104">
          <rect class="cls-37" x="93.65" y="180.74" width="1.62" height="12.53" transform="translate(-114.92 179.7) rotate(-61.2)"/>
        </g>
      </g>
      <g id="line2d_44" data-name="line2d 44">
        <g class="cls-55">
          <rect class="cls-37" x="86.97" y="193.87" width="1.62" height="12.53" transform="translate(-130.68 194.35) rotate(-64.8)"/>
        </g>
      </g>
      <g id="line2d_45" data-name="line2d 45">
        <g class="cls-58">
          <rect class="cls-37" x="81.11" y="207.39" width="1.62" height="12.53" transform="translate(-146.89 211.17) rotate(-68.4)"/>
        </g>
      </g>
      <g id="line2d_46" data-name="line2d 46">
        <g class="cls-18">
          <rect class="cls-37" x="76.12" y="221.26" width="1.62" height="12.53" transform="translate(-163.23 230.39) rotate(-72)"/>
        </g>
      </g>
      <g id="line2d_47" data-name="line2d 47">
        <g class="cls-49">
          <rect class="cls-37" x="72.01" y="235.4" width="1.62" height="12.53" transform="translate(-179.37 252.11) rotate(-75.6)"/>
        </g>
      </g>
      <g id="line2d_48" data-name="line2d 48">
        <g class="cls-91">
          <rect class="cls-37" x="68.8" y="249.78" width="1.62" height="12.53" transform="translate(-194.95 276.45) rotate(-79.2)"/>
        </g>
      </g>
      <g id="line2d_49" data-name="line2d 49">
        <g class="cls-73">
          <rect class="cls-37" x="66.49" y="264.34" width="1.62" height="12.53" transform="translate(-209.6 303.46) rotate(-82.8)"/>
        </g>
      </g>
      <g id="line2d_50" data-name="line2d 50">
        <g class="cls-2">
          <rect class="cls-37" x="65.11" y="279.01" width="1.62" height="12.53" transform="translate(-222.93 333.14) rotate(-86.4)"/>
        </g>
      </g>
      <g id="line2d_51" data-name="line2d 51">
        <g class="cls-65">
          <rect class="cls-37" x="59.19" y="299.19" width="12.53" height="1.62"/>
        </g>
      </g>
      <g id="line2d_52" data-name="line2d 52">
        <g class="cls-85">
          <rect class="cls-37" x="59.65" y="313.92" width="12.53" height="1.62" transform="translate(-19.58 4.75) rotate(-3.59)"/>
        </g>
      </g>
      <g id="line2d_53" data-name="line2d 53">
        <g class="cls-24">
          <rect class="cls-37" x="61.04" y="328.58" width="12.53" height="1.62" transform="translate(-40.72 11.02) rotate(-7.19)"/>
        </g>
      </g>
      <g id="line2d_54" data-name="line2d 54">
        <g class="cls-83">
          <rect class="cls-37" x="63.34" y="343.14" width="12.53" height="1.62" transform="translate(-63.15 19.11) rotate(-10.79)"/>
        </g>
      </g>
      <g id="line2d_55" data-name="line2d 55">
        <g class="cls-53">
          <rect class="cls-37" x="66.56" y="357.52" width="12.53" height="1.62" transform="translate(-86.81 29.36) rotate(-14.4)"/>
        </g>
      </g>
      <g id="line2d_56" data-name="line2d 56">
        <g class="cls-41">
          <rect class="cls-37" x="70.67" y="371.67" width="12.53" height="1.62" transform="translate(-111.34 42) rotate(-18)"/>
        </g>
      </g>
      <g id="line2d_57" data-name="line2d 57">
        <g class="cls-93">
          <rect class="cls-37" x="75.66" y="385.53" width="12.53" height="1.62" transform="translate(-136.56 57.35) rotate(-21.62)"/>
        </g>
      </g>
      <g id="line2d_58" data-name="line2d 58">
        <g class="cls-31">
          <rect class="cls-37" x="81.51" y="399.05" width="12.53" height="1.62" transform="translate(-161.84 75.38) rotate(-25.19)"/>
        </g>
      </g>
      <g id="line2d_59" data-name="line2d 59">
        <g class="cls-38">
          <rect class="cls-37" x="88.2" y="412.18" width="12.53" height="1.62" transform="translate(-187.38 96.69) rotate(-28.82)"/>
        </g>
      </g>
      <g id="line2d_60" data-name="line2d 60">
        <g class="cls-15">
          <rect class="cls-37" x="95.7" y="424.86" width="12.53" height="1.62" transform="translate(-212.17 120.85) rotate(-32.39)"/>
        </g>
      </g>
      <g id="line2d_61" data-name="line2d 61">
        <g class="cls-105">
          <rect class="cls-37" x="103.98" y="437.05" width="12.53" height="1.62" transform="translate(-236.28 148.39) rotate(-35.99)"/>
        </g>
      </g>
      <g id="line2d_62" data-name="line2d 62">
        <g class="cls-96">
          <rect class="cls-37" x="113.01" y="448.69" width="12.53" height="1.62" transform="translate(-259.08 179.09) rotate(-39.58)"/>
        </g>
      </g>
      <g id="line2d_63" data-name="line2d 63">
        <g class="cls-33">
          <rect class="cls-37" x="122.76" y="459.75" width="12.53" height="1.62" transform="translate(-280.38 213.28) rotate(-43.22)"/>
        </g>
      </g>
      <g id="line2d_64" data-name="line2d 64">
        <g class="cls-103">
          <rect class="cls-37" x="133.18" y="470.16" width="12.53" height="1.62" transform="translate(-299.39 250.32) rotate(-46.81)"/>
        </g>
      </g>
      <g id="line2d_65" data-name="line2d 65">
        <g class="cls-25">
          <rect class="cls-37" x="144.23" y="479.91" width="12.53" height="1.62" transform="translate(-315.84 290.26) rotate(-50.4)"/>
        </g>
      </g>
      <g id="line2d_66" data-name="line2d 66">
        <g class="cls-67">
          <rect class="cls-37" x="155.87" y="488.94" width="12.53" height="1.62" transform="translate(-329.4 333.11) rotate(-54.01)"/>
        </g>
      </g>
      <g id="line2d_67" data-name="line2d 67">
        <g class="cls-101">
          <rect class="cls-37" x="168.06" y="497.22" width="12.53" height="1.62" transform="translate(-339.62 378.51) rotate(-57.62)"/>
        </g>
      </g>
      <g id="line2d_68" data-name="line2d 68">
        <g class="cls-106">
          <rect class="cls-37" x="180.74" y="504.72" width="12.53" height="1.62" transform="translate(-346.09 425.9) rotate(-61.2)"/>
        </g>
      </g>
      <g id="line2d_69" data-name="line2d 69">
        <g class="cls-27">
          <rect class="cls-37" x="193.87" y="511.41" width="12.53" height="1.62" transform="translate(-348.53 474.92) rotate(-64.77)"/>
        </g>
      </g>
      <g id="line2d_70" data-name="line2d 70">
        <g class="cls-20">
          <rect class="cls-37" x="207.39" y="517.26" width="12.53" height="1.62" transform="translate(-346.69 526.16) rotate(-68.42)"/>
        </g>
      </g>
      <g id="line2d_71" data-name="line2d 71">
        <g class="cls-80">
          <rect class="cls-37" x="221.25" y="522.25" width="12.53" height="1.62" transform="translate(-340.22 578.11) rotate(-72.03)"/>
        </g>
      </g>
      <g id="line2d_72" data-name="line2d 72">
        <g class="cls-84">
          <rect class="cls-37" x="235.41" y="526.37" width="12.53" height="1.62" transform="translate(-329.07 630) rotate(-75.59)"/>
        </g>
      </g>
      <g id="line2d_73" data-name="line2d 73">
        <g class="cls-68">
          <rect class="cls-37" x="249.78" y="529.58" width="12.53" height="1.62" transform="translate(-313.02 682.18) rotate(-79.17)"/>
        </g>
      </g>
      <g id="line2d_74" data-name="line2d 74">
        <g class="cls-12">
          <rect class="cls-37" x="264.34" y="531.88" width="12.53" height="1.62" transform="translate(-291.81 734.4) rotate(-82.8)"/>
        </g>
      </g>
      <g id="line2d_75" data-name="line2d 75">
        <g class="cls-1">
          <rect class="cls-37" x="279.01" y="533.27" width="12.53" height="1.62" transform="translate(-265.63 785.33) rotate(-86.41)"/>
        </g>
      </g>
      <g id="line2d_76" data-name="line2d 76">
        <g class="cls-77">
          <rect class="cls-37" x="299.19" y="528.28" width="1.62" height="12.53"/>
        </g>
      </g>
      <g id="line2d_77" data-name="line2d 77">
        <g class="cls-79">
          <rect class="cls-37" x="313.92" y="527.82" width="1.62" height="12.53" transform="translate(-32.87 20.79) rotate(-3.6)"/>
        </g>
      </g>
      <g id="line2d_78" data-name="line2d 78">
        <g class="cls-11">
          <rect class="cls-37" x="328.58" y="526.43" width="1.62" height="12.53" transform="translate(-64.16 45.48) rotate(-7.2)"/>
        </g>
      </g>
      <g id="line2d_79" data-name="line2d 79">
        <g class="cls-9">
          <rect class="cls-37" x="343.14" y="524.12" width="1.62" height="12.53" transform="translate(-93.32 73.87) rotate(-10.8)"/>
        </g>
      </g>
      <g id="line2d_80" data-name="line2d 80">
        <g class="cls-87">
          <rect class="cls-37" x="357.52" y="520.91" width="1.62" height="12.53" transform="translate(-119.89 105.72) rotate(-14.41)"/>
        </g>
      </g>
      <g id="line2d_81" data-name="line2d 81">
        <g class="cls-23">
          <rect class="cls-37" x="371.67" y="516.8" width="1.62" height="12.53" transform="translate(-143.43 140.73) rotate(-18)"/>
        </g>
      </g>
      <g id="line2d_82" data-name="line2d 82">
        <g class="cls-102">
          <rect class="cls-37" x="385.53" y="511.81" width="1.62" height="12.53" transform="translate(-163.58 178.6) rotate(-21.6)"/>
        </g>
      </g>
      <g id="line2d_83" data-name="line2d 83">
        <g class="cls-81">
          <rect class="cls-37" x="399.05" y="505.96" width="1.62" height="12.53" transform="translate(-180.07 219.07) rotate(-25.21)"/>
        </g>
      </g>
      <g id="line2d_84" data-name="line2d 84">
        <g class="cls-44">
          <rect class="cls-37" x="412.18" y="499.27" width="1.62" height="12.53" transform="translate(-192.47 261.52) rotate(-28.8)"/>
        </g>
      </g>
      <g id="line2d_85" data-name="line2d 85">
        <g class="cls-95">
          <rect class="cls-37" x="424.86" y="491.77" width="1.62" height="12.53" transform="translate(-200.59 305.6) rotate(-32.4)"/>
        </g>
      </g>
      <g id="line2d_86" data-name="line2d 86">
        <g class="cls-100">
          <rect class="cls-37" x="437.05" y="483.48" width="1.62" height="12.53" transform="translate(-204.24 350.89) rotate(-36)"/>
        </g>
      </g>
      <g id="line2d_87" data-name="line2d 87">
        <g class="cls-42">
          <rect class="cls-37" x="448.69" y="474.45" width="1.62" height="12.53" transform="translate(-203.26 396.82) rotate(-39.6)"/>
        </g>
      </g>
      <g id="line2d_88" data-name="line2d 88">
        <g class="cls-57">
          <rect class="cls-37" x="459.75" y="464.71" width="1.62" height="12.53" transform="translate(-197.58 442.94) rotate(-43.2)"/>
        </g>
      </g>
      <g id="line2d_89" data-name="line2d 89">
        <g class="cls-54">
          <rect class="cls-37" x="470.16" y="454.29" width="1.62" height="12.53" transform="translate(-187.16 488.59) rotate(-46.8)"/>
        </g>
      </g>
      <g id="line2d_90" data-name="line2d 90">
        <g class="cls-71">
          <rect class="cls-37" x="479.91" y="443.24" width="1.62" height="12.53" transform="translate(-172.05 533.41) rotate(-50.4)"/>
        </g>
      </g>
      <g id="line2d_91" data-name="line2d 91">
        <g class="cls-46">
          <rect class="cls-37" x="488.94" y="431.6" width="1.62" height="12.53" transform="translate(-152.35 576.72) rotate(-54)"/>
        </g>
      </g>
      <g id="line2d_92" data-name="line2d 92">
        <g class="cls-39">
          <rect class="cls-37" x="497.22" y="419.41" width="1.62" height="12.53" transform="translate(-128.23 618.11) rotate(-57.6)"/>
        </g>
      </g>
      <g id="line2d_93" data-name="line2d 93">
        <g class="cls-98">
          <rect class="cls-37" x="504.72" y="406.73" width="1.62" height="12.53" transform="translate(-99.93 657.01) rotate(-61.2)"/>
        </g>
      </g>
      <g id="line2d_94" data-name="line2d 94">
        <g class="cls-63">
          <rect class="cls-37" x="511.41" y="393.6" width="1.62" height="12.53" transform="translate(-67.71 693.02) rotate(-64.79)"/>
        </g>
      </g>
      <g id="line2d_95" data-name="line2d 95">
        <g class="cls-60">
          <rect class="cls-37" x="517.26" y="380.08" width="1.62" height="12.53" transform="translate(-31.85 725.82) rotate(-68.4)"/>
        </g>
      </g>
      <g id="line2d_96" data-name="line2d 96">
        <g class="cls-75">
          <rect class="cls-37" x="522.25" y="366.21" width="1.62" height="12.53" transform="translate(7.16 754.81) rotate(-72)"/>
        </g>
      </g>
      <g id="line2d_97" data-name="line2d 97">
        <g class="cls-48">
          <rect class="cls-37" x="526.37" y="352.06" width="1.62" height="12.53" transform="translate(48.96 779.79) rotate(-75.59)"/>
        </g>
      </g>
      <g id="line2d_98" data-name="line2d 98">
        <g class="cls-56">
          <rect class="cls-37" x="529.58" y="337.68" width="1.62" height="12.53" transform="translate(93.12 800.47) rotate(-79.2)"/>
        </g>
      </g>
      <g id="line2d_99" data-name="line2d 99">
        <g class="cls-16">
          <rect class="cls-37" x="531.88" y="323.13" width="1.62" height="12.53" transform="translate(139.14 816.61) rotate(-82.8)"/>
        </g>
      </g>
      <g id="line2d_100" data-name="line2d 100">
        <g class="cls-34">
          <rect class="cls-37" x="533.27" y="308.46" width="1.62" height="12.53" transform="translate(186.48 828.02) rotate(-86.4)"/>
        </g>
      </g>
    </g>
  </g>
</svg>