<?xml version="1.0" encoding="UTF-8"?>
<svg xmlns="http://www.w3.org/2000/svg" viewBox="0 0 406.08 264.48">
  <defs>
    <style>
      .cls-1 {
        stroke-width: 2px;
      }

      .cls-1, .cls-2, .cls-3, .cls-4, .cls-5, .cls-6, .cls-7 {
        fill: none;
        stroke-miterlimit: 10;
      }

      .cls-1, .cls-2, .cls-5 {
        stroke: #878787;
      }

      .cls-8 {
        fill: #fff;
      }

      .cls-9 {
        fill: #1d1d1b;
        font-family: Arial-BoldMT, Arial;
        font-size: 14px;
        font-weight: 700;
      }

      .cls-10 {
        letter-spacing: -.06em;
      }

      .cls-2 {
        stroke-dasharray: 5 5;
      }

      .cls-2, .cls-5 {
        stroke-width: .5px;
      }

      .cls-3 {
        stroke: #0d7bc0;
      }

      .cls-3, .cls-4, .cls-6, .cls-7 {
        stroke-width: 3px;
      }

      .cls-4 {
        stroke: #f9b03d;
      }

      .cls-6 {
        stroke: #66b32e;
      }

      .cls-7 {
        stroke: #d61120;
      }
    </style>
  </defs>
  <g id="katman_1" data-name="katman 1">
    <rect class="cls-8" width="406.08" height="264.48"/>
  </g>
  <g id="katman_2" data-name="katman 2">
    <g>
      <line class="cls-1" x1="64.86" y1="258.47" x2="64.86" y2="8.47"/>
      <line class="cls-1" x1="14.86" y1="233.47" x2="394.86" y2="233.47"/>
      <text class="cls-9" transform="translate(10.17 36.84)"><tspan x="0" y="0">% 200</tspan></text>
      <text class="cls-9" transform="translate(10.17 56.84)"><tspan x="0" y="0">% 180</tspan></text>
      <text class="cls-9" transform="translate(10.17 86.84)"><tspan x="0" y="0">% 150</tspan></text>
      <text class="cls-9" transform="translate(10.17 145.48)"><tspan x="0" y="0">% 100</tspan></text>
      <text class="cls-9" transform="translate(10.17 118.2)"><tspan x="0" y="0">% </tspan><tspan class="cls-10" x="16.34" y="0">1</tspan><tspan x="23.35" y="0">10</tspan></text>
      <path class="cls-7" d="M66.99,230.26c1.39-20.88,12.21-183.61,14.16-190.03,1.08-3.55,3.36-4.8,3.36-4.8,1.68-.92,3.55-.73,3.68-.72.57.06,1.37.24,2.56.88,2.29,1.24,3.67,2.94,4.32,3.76,3.15,3.95,4.72,5.93,5.52,7.28,3.39,5.73,5.21,11.4,6.96,16.96,3.26,10.33,4.89,15.5,5.27,16.78,4.18,13.89,5.14,17.62,8,23.89,2.24,4.93,4.44,8.77,8.11,12.37,2.45,2.41,4.77,3.94,6.72,5.23,6.05,3.99,11.27,5.76,12.59,6.19,3.59,1.17,6.25,1.57,10.67,2.24,4.79.72,8.38.93,12.91,1.17,3.64.2,8.38.37,13.97.32"/>
      <path class="cls-4" d="M69.57,230.26c9.33-83.92,17.13-144.95,19.09-154.9.24-1.21,2.11-10.22,7.68-14.88,2.46-2.06,5.44-3.52,5.44-3.52,2.54-1.25,4.85-1.89,6.56-2.24h13.28c2.24,0,4.48,0,6.72,0,4.63-.01,4.53-.04,4.96,0,4.18.38,7.27,2.28,8.48,3.04.88.56,2.61,1.74,7.68,8.32,2.96,3.84,3.39,4.76,7.52,10.4,2.84,3.87,4.29,5.86,6.24,8.16,1.01,1.2,2.25,2.6,7.2,7.68,5.44,5.58,8.16,8.37,10.56,10.56,2.37,2.16,5.68,5.19,10.24,8.48,5.63,4.06,10.26,6.39,19.52,11.04,6.02,3.02,9.03,4.54,12.16,5.6,6.8,2.31,12.35,2.88,17.28,3.36,4.43.43,10.38.71,17.44.16"/>
      <path class="cls-3" d="M69.31,230.91c13.09-73.24,24.4-126.24,27.52-132.05,1.88-3.49,5.12-7.47,5.12-7.47,2.2-2.7,3.71-4.51,6.19-5.76,2.83-1.43,5.38-1.33,8.32-1.28,5.19.09,10.39-.37,15.57-.14.11,0,7.47,0,22.19,0,11,0,10.51-.07,21.33-.09,4,0,6.65,0,16.85,0,7.41,0,11.12,0,11.73,0,14.35-.25,15.55-1.32,20.11,0,5.08,1.48,8.46,4.24,12.37,7.43,4.06,3.32,4.18,4.45,11.95,12.37,2.93,2.98,5.45,5.55,9.07,8.75,2.6,2.3,6.32,5.57,11.63,9.17,3.57,2.43,6.62,4.5,10.88,6.4,6.29,2.81,11.54,3.6,16,4.23,5.49.79,13.51,1.36,23.25,0"/>
      <path class="cls-6" d="M68.13,231.71c13.05-51.01,22.64-88.04,24.4-95.76.31-1.38,1.18-5.34,4.48-8.16,1.69-1.45,3.72-2.34,8.32-3.2,6.6-1.24,11.67-1.14,17.12-1.11,4.75.03,9.49-.07,14.24-.07,7.41,0,14.83,0,22.24,0,4.53,0,9.07,0,13.6,0h11.04c4.21,0,8.43,0,12.64,0,11.88,0,13.56.06,23.68.07,8.74,0,16.15.02,25.92-.07,14.52-.14,15.07-.32,19.05,0,9.27.74,9.82,1.99,22.23,3.91,12.04,1.86,11.38.66,27.52,2.88,5.27.73,9.75,1.46,17.6,2.29,4.7.49,8.58.81,11.2,1"/>
      <g>
        <line class="cls-5" x1="54.86" y1="183.47" x2="57.36" y2="183.47"/>
        <line class="cls-2" x1="62.36" y1="183.47" x2="369.86" y2="183.47"/>
        <line class="cls-5" x1="372.36" y1="183.47" x2="374.86" y2="183.47"/>
      </g>
      <g>
        <line class="cls-5" x1="54.86" y1="133.47" x2="57.36" y2="133.47"/>
        <line class="cls-2" x1="62.36" y1="133.47" x2="369.86" y2="133.47"/>
        <line class="cls-5" x1="372.36" y1="133.47" x2="374.86" y2="133.47"/>
      </g>
      <g>
        <line class="cls-5" x1="54.86" y1="83.47" x2="57.36" y2="83.47"/>
        <line class="cls-2" x1="62.36" y1="83.47" x2="369.86" y2="83.47"/>
        <line class="cls-5" x1="372.36" y1="83.47" x2="374.86" y2="83.47"/>
      </g>
      <g>
        <line class="cls-5" x1="54.86" y1="53.47" x2="57.36" y2="53.47"/>
        <line class="cls-2" x1="62.36" y1="53.47" x2="369.86" y2="53.47"/>
        <line class="cls-5" x1="372.36" y1="53.47" x2="374.86" y2="53.47"/>
      </g>
      <g>
        <line class="cls-5" x1="54.86" y1="33.47" x2="57.36" y2="33.47"/>
        <line class="cls-2" x1="62.36" y1="33.47" x2="369.86" y2="33.47"/>
        <line class="cls-5" x1="372.36" y1="33.47" x2="374.86" y2="33.47"/>
      </g>
      <g>
        <line class="cls-5" x1="54.86" y1="123.47" x2="57.36" y2="123.47"/>
        <line class="cls-2" x1="62.36" y1="123.47" x2="369.86" y2="123.47"/>
        <line class="cls-5" x1="372.36" y1="123.47" x2="374.86" y2="123.47"/>
      </g>
    </g>
  </g>
</svg>